<svg width="50" height="50" viewBox="0 0 50 50" fill="none"
  xmlns="http://www.w3.org/2000/svg">
  <path fill-rule="evenodd" clip-rule="evenodd" d="M44.4212 44.4212C36.9827 51.8596 13.0173 51.8596 5.57884 44.4212C-1.85962 36.9827 -1.85962 13.0173 5.57884 5.57884C13.0173 -1.85962 36.9827 -1.85962 44.4212 5.57884C51.8596 13.0173 51.8596 36.9827 44.4212 44.4212Z" fill="#FAFAFA"/>
  <path fill-rule="evenodd" clip-rule="evenodd" d="M25.8325 28.7797L27.8069 30.6705C31.0513 33.7804 36.3248 33.7759 39.5628 30.6604C41.1346 29.1485 42 27.1381 42 24.9998C42 22.8618 41.1346 20.8514 39.5628 19.3395C36.3245 16.224 31.0507 16.2198 27.8069 19.3294L19.094 27.6816C17.5596 29.1524 15.066 29.1502 13.5343 27.6768C11.9999 26.2009 11.9999 23.799 13.5343 22.3231C14.3009 21.5856 15.3087 21.2165 16.3168 21.2165C17.3222 21.2165 18.3277 21.5836 19.094 22.3183L21.0587 24.1942L24.1698 21.2188L22.1893 19.3294C18.9452 16.2195 13.6714 16.2243 10.4331 19.3395C7.18897 22.4606 7.18897 27.539 10.4331 30.6604C12.0543 32.2199 14.1854 32.9999 16.3168 32.9999C18.4429 32.9999 20.5693 32.2235 22.1893 30.6705L30.9022 22.3183C32.4363 20.8477 34.9305 20.8497 36.4619 22.3231C37.2051 23.0381 37.6145 23.9889 37.6145 24.9998C37.6145 26.011 37.2051 26.9618 36.4619 27.6768C34.9305 29.1502 32.4363 29.1521 30.9022 27.6816L28.939 25.8029L25.8325 28.7797Z" fill="#9575CD"/>
</svg>
